<svg width="24" height="25" viewBox="0 0 24 25" fill="none" xmlns="http://www.w3.org/2000/svg">
<path d="M12 0.605408C5.38346 0.605408 0 5.98887 0 12.6054C0 19.2219 5.38346 24.6054 12 24.6054C18.6165 24.6054 24 19.2219 24 12.6054C24 5.98887 18.6165 0.605408 12 0.605408ZM18.7068 9.44751L11.0376 17.0565C10.5865 17.5077 9.86466 17.5377 9.38346 17.0866L5.32331 13.3874C4.8421 12.9362 4.81203 12.1844 5.23308 11.7032C5.68421 11.2219 6.43609 11.1919 6.91729 11.643L10.1353 14.5904L16.9925 7.73323C17.4737 7.25202 18.2256 7.25202 18.7068 7.73323C19.188 8.21443 19.188 8.96631 18.7068 9.44751Z" fill="white"/>
</svg>
