<svg width="25" height="25" viewBox="0 0 25 25" fill="none" xmlns="http://www.w3.org/2000/svg">
<g clip-path="url(#clip0_18_374)">
<path d="M16.9266 18.136H22.1666C21.7266 12.3294 19.2266 8.72269 16.02 6.58936L17.4799 3.40269C17.5241 3.30158 17.5424 3.19109 17.5334 3.08113C17.5243 2.97117 17.488 2.86519 17.4279 2.77269C17.3678 2.68018 17.2856 2.60405 17.1888 2.55111C17.092 2.49817 16.9836 2.47008 16.8733 2.46936H7.73328C7.62296 2.47008 7.51453 2.49817 7.41773 2.55111C7.32093 2.60405 7.23879 2.68018 7.17866 2.77269C7.11853 2.86519 7.0823 2.97117 7.07322 3.08113C7.06414 3.19109 7.08248 3.30158 7.12662 3.40269L7.92662 5.13603H14.6733L14.0733 6.46936H12.84C13.2166 7.48219 13.4935 8.52938 13.6666 9.59603C13.7788 10.2577 13.85 10.9256 13.88 11.596L12.8266 12.336C12.8295 11.4737 12.7581 10.6128 12.6133 9.76269C12.4291 8.63134 12.1113 7.52584 11.6666 6.46936H11C10.3847 7.24674 9.83188 8.07153 9.34662 8.93603C8.95536 9.67759 8.62321 10.4489 8.35328 11.2427L7.43995 10.636C7.70655 9.86879 8.03427 9.12418 8.41995 8.40936C8.80966 7.73905 9.23701 7.09135 9.69995 6.46936H8.53328L8.58662 6.58269C5.05328 8.93603 2.36662 13.0694 2.36662 19.9694C2.35761 20.1144 2.37743 20.2598 2.42493 20.3971C2.47244 20.5345 2.54669 20.661 2.64339 20.7695C2.74009 20.878 2.85733 20.9662 2.98833 21.0291C3.11933 21.0921 3.2615 21.1284 3.40662 21.136H8.73995C8.51094 20.8977 8.35282 20.6003 8.2833 20.2771C8.21378 19.954 8.23561 19.6179 8.34635 19.3064C8.45708 18.995 8.65234 18.7206 8.91025 18.5138C9.16817 18.3071 9.47855 18.1763 9.80662 18.136C9.64696 17.8653 9.56185 17.557 9.55995 17.2427C9.55995 16.7653 9.74959 16.3075 10.0872 15.9699C10.4247 15.6323 10.8826 15.4427 11.36 15.4427H15.36C15.8373 15.4427 16.2952 15.6323 16.6327 15.9699C16.9703 16.3075 17.16 16.7653 17.16 17.2427C17.1634 17.556 17.0828 17.8644 16.9266 18.136Z" fill="url(#paint0_linear_18_374)"/>
<path d="M14.7332 19.8027C14.7332 19.6259 14.663 19.4563 14.538 19.3313C14.4129 19.2063 14.2434 19.136 14.0666 19.136H10.0666C9.88976 19.136 9.72019 19.2063 9.59516 19.3313C9.47014 19.4563 9.3999 19.6259 9.3999 19.8027C9.3999 19.9795 9.47014 20.1491 9.59516 20.2741C9.72019 20.3991 9.88976 20.4694 10.0666 20.4694H14.0666C14.2434 20.4694 14.4129 20.3991 14.538 20.2741C14.663 20.1491 14.7332 19.9795 14.7332 19.8027Z" fill="url(#paint1_linear_18_374)"/>
<path d="M15.3599 16.4694H11.3599C11.1831 16.4694 11.0135 16.5396 10.8885 16.6646C10.7635 16.7897 10.6932 16.9592 10.6932 17.136C10.6932 17.3129 10.7635 17.4824 10.8885 17.6074C11.0135 17.7325 11.1831 17.8027 11.3599 17.8027H15.3599C15.5367 17.8027 15.7063 17.7325 15.8313 17.6074C15.9563 17.4824 16.0266 17.3129 16.0266 17.136C16.0266 16.9592 15.9563 16.7897 15.8313 16.6646C15.7063 16.5396 15.5367 16.4694 15.3599 16.4694Z" fill="url(#paint2_linear_18_374)"/>
<path d="M14.9999 21.8027H10.9999C10.8231 21.8027 10.6535 21.8729 10.5285 21.998C10.4035 22.123 10.3333 22.2926 10.3333 22.4694C10.3333 22.6462 10.4035 22.8158 10.5285 22.9408C10.6535 23.0658 10.8231 23.136 10.9999 23.136H14.9999C15.1767 23.136 15.3463 23.0658 15.4713 22.9408C15.5963 22.8158 15.6666 22.6462 15.6666 22.4694C15.6666 22.2926 15.5963 22.123 15.4713 21.998C15.3463 21.8729 15.1767 21.8027 14.9999 21.8027Z" fill="url(#paint3_linear_18_374)"/>
<path d="M22.1333 21.8027H17.4666C17.2898 21.8027 17.1202 21.8729 16.9952 21.998C16.8702 22.123 16.7999 22.2926 16.7999 22.4694C16.7999 22.6462 16.8702 22.8158 16.9952 22.9408C17.1202 23.0658 17.2898 23.136 17.4666 23.136H22.1333C22.3101 23.136 22.4796 23.0658 22.6047 22.9408C22.7297 22.8158 22.7999 22.6462 22.7999 22.4694C22.7999 22.2926 22.7297 22.123 22.6047 21.998C22.4796 21.8729 22.3101 21.8027 22.1333 21.8027Z" fill="url(#paint4_linear_18_374)"/>
<path d="M22.7999 19.136H18.1332C17.9564 19.136 17.7868 19.2063 17.6618 19.3313C17.5368 19.4563 17.4666 19.6259 17.4666 19.8027C17.4666 19.9795 17.5368 20.1491 17.6618 20.2741C17.7868 20.3991 17.9564 20.4694 18.1332 20.4694H22.7999C22.9767 20.4694 23.1463 20.3991 23.2713 20.2741C23.3963 20.1491 23.4666 19.9795 23.4666 19.8027C23.4666 19.6259 23.3963 19.4563 23.2713 19.3313C23.1463 19.2063 22.9767 19.136 22.7999 19.136Z" fill="url(#paint5_linear_18_374)"/>
</g>
<defs>
<linearGradient id="paint0_linear_18_374" x1="22.1666" y1="11.8027" x2="2.3645" y2="11.8027" gradientUnits="userSpaceOnUse">
<stop stop-color="#319AE5"/>
<stop offset="1" stop-color="#39A54C"/>
</linearGradient>
<linearGradient id="paint1_linear_18_374" x1="14.7332" y1="19.8027" x2="9.3999" y2="19.8027" gradientUnits="userSpaceOnUse">
<stop stop-color="#319AE5"/>
<stop offset="1" stop-color="#39A54C"/>
</linearGradient>
<linearGradient id="paint2_linear_18_374" x1="16.0266" y1="17.136" x2="10.6932" y2="17.136" gradientUnits="userSpaceOnUse">
<stop stop-color="#319AE5"/>
<stop offset="1" stop-color="#39A54C"/>
</linearGradient>
<linearGradient id="paint3_linear_18_374" x1="15.6666" y1="22.4694" x2="10.3333" y2="22.4694" gradientUnits="userSpaceOnUse">
<stop stop-color="#319AE5"/>
<stop offset="1" stop-color="#39A54C"/>
</linearGradient>
<linearGradient id="paint4_linear_18_374" x1="22.7999" y1="22.4694" x2="16.7999" y2="22.4694" gradientUnits="userSpaceOnUse">
<stop stop-color="#319AE5"/>
<stop offset="1" stop-color="#39A54C"/>
</linearGradient>
<linearGradient id="paint5_linear_18_374" x1="23.4666" y1="19.8027" x2="17.4666" y2="19.8027" gradientUnits="userSpaceOnUse">
<stop stop-color="#319AE5"/>
<stop offset="1" stop-color="#39A54C"/>
</linearGradient>
<clipPath id="clip0_18_374">
<rect width="24" height="24" fill="white" transform="translate(0.333252 0.802704)"/>
</clipPath>
</defs>
</svg>
