<svg width="8" height="6" viewBox="0 0 8 6" fill="none" xmlns="http://www.w3.org/2000/svg">
<path d="M0.473344 1.19334C0.411542 1.25502 0.36251 1.32828 0.329056 1.40893C0.295601 1.48958 0.278381 1.57603 0.278381 1.66334C0.278381 1.75066 0.295601 1.83711 0.329056 1.91776C0.36251 1.99841 0.411542 2.07167 0.473344 2.13334L3.53334 5.19334C3.59502 5.25515 3.66828 5.30418 3.74893 5.33763C3.82958 5.37109 3.91603 5.38831 4.00334 5.38831C4.09066 5.38831 4.17711 5.37109 4.25776 5.33763C4.33841 5.30418 4.41167 5.25515 4.47334 5.19334L7.53334 2.13334C7.59506 2.07162 7.64402 1.99835 7.67743 1.91771C7.71083 1.83706 7.72802 1.75063 7.72802 1.66334C7.72802 1.57606 7.71083 1.48962 7.67743 1.40898C7.64402 1.32834 7.59506 1.25506 7.53334 1.19334C7.47162 1.13162 7.39835 1.08266 7.31771 1.04926C7.23706 1.01586 7.15063 0.998662 7.06334 0.998662C6.97606 0.998662 6.88962 1.01586 6.80898 1.04926C6.72834 1.08266 6.65507 1.13162 6.59334 1.19334L4.00001 3.78001L1.41334 1.19334C1.15334 0.933343 0.726677 0.94001 0.473344 1.19334Z" fill="url(#paint0_linear_102_69)"/>
<defs>
<linearGradient id="paint0_linear_102_69" x1="4.0032" y1="0.998662" x2="4.0032" y2="5.38831" gradientUnits="userSpaceOnUse">
<stop stop-color="#319AE5"/>
<stop offset="1" stop-color="#39A54C"/>
</linearGradient>
</defs>
</svg>
