<svg width="13" height="14" viewBox="0 0 13 14" fill="none" xmlns="http://www.w3.org/2000/svg">
<path d="M6.5 7.625C6.67708 7.625 6.82563 7.565 6.94563 7.445C7.06521 7.32542 7.125 7.17708 7.125 7V4.48438C7.125 4.30729 7.06521 4.16146 6.94563 4.04688C6.82563 3.93229 6.67708 3.875 6.5 3.875C6.32292 3.875 6.17458 3.93479 6.055 4.05438C5.935 4.17438 5.875 4.32292 5.875 4.5V7.01562C5.875 7.19271 5.935 7.33854 6.055 7.45312C6.17458 7.56771 6.32292 7.625 6.5 7.625ZM6.5 10.125C6.67708 10.125 6.82563 10.065 6.94563 9.945C7.06521 9.82542 7.125 9.67708 7.125 9.5C7.125 9.32292 7.06521 9.17437 6.94563 9.05437C6.82563 8.93479 6.67708 8.875 6.5 8.875C6.32292 8.875 6.17458 8.93479 6.055 9.05437C5.935 9.17437 5.875 9.32292 5.875 9.5C5.875 9.67708 5.935 9.82542 6.055 9.945C6.17458 10.065 6.32292 10.125 6.5 10.125ZM6.5 13.25C5.63542 13.25 4.82292 13.0858 4.0625 12.7575C3.30208 12.4296 2.64062 11.9844 2.07813 11.4219C1.51563 10.8594 1.07042 10.1979 0.7425 9.4375C0.414167 8.67708 0.25 7.86458 0.25 7C0.25 6.13542 0.414167 5.32292 0.7425 4.5625C1.07042 3.80208 1.51563 3.14062 2.07813 2.57813C2.64062 2.01563 3.30208 1.57021 4.0625 1.24187C4.82292 0.913958 5.63542 0.75 6.5 0.75C7.36458 0.75 8.17708 0.913958 8.9375 1.24187C9.69792 1.57021 10.3594 2.01563 10.9219 2.57813C11.4844 3.14062 11.9296 3.80208 12.2575 4.5625C12.5858 5.32292 12.75 6.13542 12.75 7C12.75 7.86458 12.5858 8.67708 12.2575 9.4375C11.9296 10.1979 11.4844 10.8594 10.9219 11.4219C10.3594 11.9844 9.69792 12.4296 8.9375 12.7575C8.17708 13.0858 7.36458 13.25 6.5 13.25ZM6.5 12C7.88542 12 9.06521 11.5131 10.0394 10.5394C11.0131 9.56521 11.5 8.38542 11.5 7C11.5 5.61458 11.0131 4.43479 10.0394 3.46062C9.06521 2.48687 7.88542 2 6.5 2C5.11458 2 3.935 2.48687 2.96125 3.46062C1.98708 4.43479 1.5 5.61458 1.5 7C1.5 8.38542 1.98708 9.56521 2.96125 10.5394C3.935 11.5131 5.11458 12 6.5 12Z" fill="#FF2E00"/>
</svg>
