<svg width="16" height="30" viewBox="0 0 16 30" fill="none" xmlns="http://www.w3.org/2000/svg">
<path d="M0.350634 1.05823C0.575349 0.83295 0.88034 0.70614 1.19854 0.70569C1.51673 0.70524 1.82208 0.831187 2.04743 1.05583L15.209 14.1718C15.332 14.2945 15.4296 14.4402 15.4962 14.6006C15.5628 14.761 15.5971 14.933 15.5971 15.1066C15.5971 15.2803 15.5628 15.4523 15.4962 15.6127C15.4296 15.7731 15.332 15.9188 15.209 16.0414L2.04743 29.1574C1.82081 29.3757 1.51751 29.4963 1.20286 29.4931C0.888218 29.4899 0.587407 29.3633 0.365224 29.1405C0.143041 28.9177 0.0172635 28.6165 0.0149834 28.3019C0.0127033 27.9872 0.134103 27.6842 0.353034 27.4582L12.749 15.1054L0.353034 2.75503C0.12775 2.53032 0.00093955 2.22533 0.000489483 1.90713C3.94167e-05 1.58893 0.125987 1.28359 0.350634 1.05823Z" fill="#333333"/>
</svg>
