<svg width="21" height="19" viewBox="0 0 21 19" fill="none" xmlns="http://www.w3.org/2000/svg">
<path d="M16.5 2.062V0H4.5V2.062H0.5V5C0.5 7.525 2.389 9.598 4.824 9.932C5.17278 10.9548 5.7914 11.8644 6.61448 12.5646C7.43756 13.2648 8.43452 13.7297 9.5 13.91V15C9.5 15.5304 9.28929 16.0391 8.91421 16.4142C8.53914 16.7893 8.03043 17 7.5 17H6.5V19H14.5V17H13.5C12.9696 17 12.4609 16.7893 12.0858 16.4142C11.7107 16.0391 11.5 15.5304 11.5 15V13.91C12.5655 13.7297 13.5624 13.2648 14.3855 12.5646C15.2086 11.8644 15.8272 10.9548 16.176 9.932C18.611 9.598 20.5 7.525 20.5 5V2.062H16.5ZM2.5 5V4.062H4.5V7.828C3.91549 7.62073 3.40946 7.23762 3.05137 6.73128C2.69327 6.22494 2.50067 5.62017 2.5 5ZM18.5 5C18.4992 5.62027 18.3066 6.22513 17.9486 6.73161C17.5905 7.2381 17.0845 7.62142 16.5 7.829V4.062H18.5V5Z" fill="white"/>
</svg>
