<svg width="45" height="42" viewBox="0 0 45 42" fill="none" xmlns="http://www.w3.org/2000/svg">
<path d="M43.509 20.5818L42.4603 19.5158L42.0304 19.1032C42.5839 17.4074 42.8964 15.6422 42.9588 13.8595C42.9588 10.2117 41.5098 6.71326 38.9304 4.13388C36.351 1.55449 32.8526 0.105408 29.2048 0.105408H22.8779C22.1644 0.105408 21.463 0.277333 20.832 0.603992C20.0618 0.414874 19.2812 0.277334 18.4938 0.191371H17.17C13.5222 0.191371 10.0238 1.64045 7.44441 4.21984C4.86503 6.79922 3.41594 10.2976 3.41594 13.9454V17.5559L1.37003 19.533C0.713376 20.1975 0.267469 21.041 0.0881957 21.9578C-0.0910775 22.8746 0.00426043 23.824 0.36226 24.6869C0.720259 25.5497 1.32499 26.2877 2.10065 26.8083C2.87632 27.329 3.7884 27.6091 4.72258 27.6135C4.92201 27.6307 5.12316 27.6307 5.32432 27.6135C5.5375 28.4095 5.95185 29.1368 6.5278 29.7282C7.32239 30.5003 8.36291 30.9689 9.46773 31.052C9.56313 32.1606 10.0437 33.2007 10.8259 33.992C11.6101 34.7818 12.6554 35.2586 13.7659 35.333C13.8479 36.4415 14.3235 37.4843 15.1069 38.2729C15.9321 39.1042 17.0374 39.5982 18.2072 39.6586C19.377 39.719 20.5273 39.3415 21.4338 38.5996L22.8435 39.9922C23.2829 40.434 23.8053 40.7846 24.3806 41.0239C24.956 41.2632 25.573 41.3864 26.1961 41.3864C26.8192 41.3864 27.4362 41.2632 28.0115 41.0239C28.5869 40.7846 29.1093 40.434 29.5486 39.9922C30.3549 39.209 30.8446 38.1563 30.924 37.035C32.0346 36.9607 33.0798 36.4839 33.864 35.694C34.63 34.9022 35.0979 33.8693 35.1878 32.7713C36.2964 32.6759 37.3365 32.1953 38.1277 31.4131C38.756 30.7865 39.1916 29.993 39.3828 29.1265C40.1307 29.2562 40.899 29.1985 41.6191 28.9585C42.3392 28.7184 42.9886 28.3036 43.509 27.7511C43.9815 27.2813 44.3565 26.7228 44.6124 26.1076C44.8683 25.4924 45 24.8327 45 24.1664C45 23.5001 44.8683 22.8404 44.6124 22.2252C44.3565 21.61 43.9815 21.0515 43.509 20.5818ZM22.8779 3.54392H29.2048C31.9406 3.54392 34.5644 4.63073 36.499 6.56527C38.4335 8.49981 39.5203 11.1236 39.5203 13.8595C39.4901 14.6752 39.3865 15.4865 39.2109 16.2836L32.1447 9.20028C31.984 9.04101 31.7935 8.91499 31.584 8.82944C31.3746 8.74389 31.1503 8.70048 30.924 8.70169H23.2218C22.836 8.69904 22.4606 8.82621 22.1558 9.06273L18.7173 11.6932C18.2813 11.9902 17.7487 12.1105 17.2273 12.0296C16.7059 11.9487 16.2348 11.6728 15.9092 11.2576C15.5836 10.8424 15.428 10.3191 15.4737 9.79348C15.5195 9.26787 15.7632 8.77927 16.1556 8.42661L22.0871 3.78462C22.311 3.6078 22.5934 3.52185 22.8779 3.54392ZM3.79418 23.814C3.55461 23.5643 3.42084 23.2316 3.42084 22.8856C3.42084 22.5395 3.55461 22.2069 3.79418 21.9572L6.35587 19.3955C6.47753 19.2736 6.62236 19.1774 6.78181 19.1124C6.94126 19.0475 7.11211 19.0151 7.28427 19.0172C7.45383 19.0155 7.62199 19.048 7.7786 19.1131C7.93521 19.1781 8.07702 19.2741 8.19548 19.3955C8.31815 19.517 8.41553 19.6616 8.48199 19.8209C8.54845 19.9803 8.58267 20.1512 8.58267 20.3239C8.58267 20.4965 8.54845 20.6675 8.48199 20.8268C8.41553 20.9862 8.31815 21.1308 8.19548 21.2523L5.65098 23.814C5.39743 24.0459 5.06623 24.1746 4.72258 24.1746C4.37893 24.1746 4.04773 24.0459 3.79418 23.814ZM8.57371 26.3241C8.57313 26.1531 8.60796 25.9839 8.67602 25.8271C8.74408 25.6702 8.84388 25.5292 8.96914 25.4129L11.5136 22.8512C11.7576 22.6049 12.0894 22.4657 12.436 22.4641C12.7826 22.4625 13.1156 22.5986 13.3618 22.8426C13.6081 23.0865 13.7473 23.4183 13.7489 23.7649C13.7505 24.1115 13.6144 24.4445 13.3704 24.6908L10.8087 27.2525C10.6551 27.4014 10.4676 27.5108 10.2623 27.5714C10.0571 27.632 9.84021 27.6419 9.63029 27.6004C9.42037 27.5588 9.22366 27.4669 9.05701 27.3327C8.89036 27.1984 8.75874 27.0258 8.67343 26.8295C8.60559 26.6698 8.57164 26.4976 8.57371 26.3241ZM13.2501 29.7626L15.8118 27.2009C15.9334 27.0791 16.0783 26.9828 16.2377 26.9179C16.3972 26.8529 16.568 26.8205 16.7402 26.8227C16.9097 26.8209 17.0779 26.8535 17.2345 26.9185C17.3911 26.9835 17.5329 27.0796 17.6514 27.2009C17.7741 27.3224 17.8714 27.467 17.9379 27.6263C18.0044 27.7857 18.0386 27.9566 18.0386 28.1293C18.0386 28.3019 18.0044 28.4729 17.9379 28.6322C17.8714 28.7916 17.7741 28.9362 17.6514 29.0577L15.1069 31.5506C14.8583 31.7851 14.5281 31.9135 14.1864 31.9085C13.8447 31.9035 13.5184 31.7656 13.2768 31.5239C13.0351 31.2823 12.8972 30.956 12.8922 30.6143C12.8872 30.2726 13.0156 29.9424 13.2501 29.6938V29.7626ZM17.5482 35.9003C17.4256 35.7788 17.3282 35.6342 17.2617 35.4749C17.1953 35.3155 17.161 35.1446 17.161 34.9719C17.161 34.7993 17.1953 34.6283 17.2617 34.469C17.3282 34.3096 17.4256 34.165 17.5482 34.0435L20.0927 31.499C20.3389 31.2514 20.672 31.1095 21.0211 31.1036C21.1929 31.1045 21.3627 31.1393 21.521 31.2059C21.6793 31.2725 21.8229 31.3696 21.9437 31.4918C22.0644 31.6139 22.1598 31.7587 22.2246 31.9178C22.2893 32.0768 22.322 32.2471 22.3209 32.4188C22.321 32.762 22.1878 33.0918 21.9495 33.3386L19.3878 35.9003C19.1322 36.1298 18.7974 36.2509 18.4541 36.238C18.1109 36.2252 17.786 36.0795 17.5482 35.8316V35.9003ZM39.8986 25.7911C39.2545 25.6177 38.6637 25.2868 38.1793 24.8283V24.7424L34.7408 21.3038C34.4171 20.9801 33.978 20.7982 33.5201 20.7982C33.0623 20.7982 32.6232 20.9801 32.2995 21.3038C31.9757 21.6276 31.7938 22.0667 31.7938 22.5245C31.7938 22.9824 31.9757 23.4214 32.2995 23.7452L35.738 27.1837C35.9452 27.4343 36.0515 27.7532 36.0361 28.078C36.0207 28.4028 35.8848 28.7103 35.6549 28.9402C35.4249 29.1701 35.1175 29.3061 34.7927 29.3214C34.4679 29.3368 34.149 29.2305 33.8984 29.0233C33.741 28.8552 33.5515 28.7203 33.3411 28.6268C33.1307 28.5332 32.9036 28.4828 32.6734 28.4786C32.4431 28.4744 32.2144 28.5164 32.0007 28.6022C31.787 28.688 31.5926 28.8158 31.4292 28.9781C31.2658 29.1403 31.1366 29.3337 31.0493 29.5468C30.962 29.7599 30.9184 29.9884 30.921 30.2186C30.9236 30.4489 30.9723 30.6763 31.0644 30.8874C31.1565 31.0985 31.29 31.2889 31.457 31.4475C31.5792 31.5675 31.6762 31.7106 31.7424 31.8685C31.8087 32.0265 31.8428 32.196 31.8428 32.3673C31.8428 32.5385 31.8087 32.708 31.7424 32.866C31.6762 33.0239 31.5792 33.167 31.457 33.2871C31.3355 33.4097 31.1909 33.5071 31.0316 33.5736C30.8722 33.64 30.7013 33.6743 30.5286 33.6743C30.356 33.6743 30.185 33.64 30.0257 33.5736C29.8663 33.5071 29.7217 33.4097 29.6002 33.2871C29.2781 32.9668 28.8423 32.7871 28.3881 32.7871C27.9339 32.7871 27.4982 32.9668 27.1761 33.2871C26.8559 33.6092 26.6761 34.0449 26.6761 34.4991C26.6761 34.9533 26.8559 35.3891 27.1761 35.7112C27.4223 35.9552 27.5615 36.2869 27.5631 36.6335C27.5648 36.9801 27.4286 37.3132 27.1847 37.5594C26.9407 37.8056 26.609 37.9449 26.2623 37.9465C25.9157 37.9481 25.5827 37.812 25.3365 37.568L23.9611 36.1926L24.4424 35.7284C24.8848 35.2876 25.2358 34.7637 25.4753 34.187C25.7148 33.6102 25.8381 32.9918 25.8381 32.3673C25.8381 31.7427 25.7148 31.1243 25.4753 30.5476C25.2358 29.9708 24.8848 29.447 24.4424 29.0061C23.6442 28.1887 22.5735 27.6931 21.4338 27.6135C21.3518 26.5049 20.8761 25.4622 20.0927 24.6736C19.3009 23.9075 18.268 23.4397 17.17 23.3498C17.0746 22.2412 16.5941 21.2011 15.8118 20.4098C15.3031 19.8857 14.6795 19.4871 13.9902 19.2454C13.3009 19.0037 12.5649 18.9256 11.8403 19.0172C11.5585 17.9421 10.9003 17.0038 9.9854 16.3728C9.07047 15.7419 7.95952 15.4601 6.85445 15.5787V13.8595C6.85338 11.1735 7.89998 8.59305 9.77175 6.66669C11.6435 4.74034 14.1928 3.62002 16.8777 3.54392L14.1269 5.69299C12.9993 6.6023 12.2744 7.91849 12.1086 9.35755C11.9429 10.7966 12.3496 12.2431 13.2409 13.385C14.1323 14.5268 15.4369 15.2724 16.8731 15.4609C18.3094 15.6494 19.7622 15.2656 20.918 14.3924L23.8063 12.1402H30.2192L36.993 19.0172L41.0677 23.0747C41.3528 23.3906 41.5106 23.801 41.5106 24.2266C41.5106 24.6521 41.3528 25.0626 41.0677 25.3785C40.9191 25.5423 40.7276 25.6613 40.515 25.722C40.3023 25.7828 40.0769 25.7829 39.8642 25.7223L39.8986 25.7911Z" fill="white"/>
</svg>
