<svg width="45" height="46" viewBox="0 0 45 46" fill="none" xmlns="http://www.w3.org/2000/svg">
<path d="M6.13636 19.9318C6.13636 18.5756 6.67512 17.2749 7.63411 16.3159C8.59311 15.3569 9.89378 14.8182 11.25 14.8182C12.6062 14.8182 13.9069 15.3569 14.8659 16.3159C15.8249 17.2749 16.3636 18.5756 16.3636 19.9318C16.3636 21.288 15.8249 22.5887 14.8659 23.5477C13.9069 24.5067 12.6062 25.0455 11.25 25.0455C9.89378 25.0455 8.59311 24.5067 7.63411 23.5477C6.67512 22.5887 6.13636 21.288 6.13636 19.9318ZM11.25 17.8864C10.7075 17.8864 10.1872 18.1019 9.80365 18.4855C9.42005 18.8691 9.20455 19.3893 9.20455 19.9318C9.20455 20.4743 9.42005 20.9946 9.80365 21.3782C10.1872 21.7618 10.7075 21.9773 11.25 21.9773C11.7925 21.9773 12.3128 21.7618 12.6964 21.3782C13.08 20.9946 13.2955 20.4743 13.2955 19.9318C13.2955 19.3893 13.08 18.8691 12.6964 18.4855C12.3128 18.1019 11.7925 17.8864 11.25 17.8864ZM11.25 29.1364C9.89378 29.1364 8.59311 29.6751 7.63411 30.6341C6.67512 31.5931 6.13636 32.8938 6.13636 34.25C6.13636 35.6062 6.67512 36.9069 7.63411 37.8659C8.59311 38.8249 9.89378 39.3636 11.25 39.3636C12.6062 39.3636 13.9069 38.8249 14.8659 37.8659C15.8249 36.9069 16.3636 35.6062 16.3636 34.25C16.3636 32.8938 15.8249 31.5931 14.8659 30.6341C13.9069 29.6751 12.6062 29.1364 11.25 29.1364ZM9.20455 34.25C9.20455 33.7075 9.42005 33.1872 9.80365 32.8036C10.1872 32.42 10.7075 32.2045 11.25 32.2045C11.7925 32.2045 12.3128 32.42 12.6964 32.8036C13.08 33.1872 13.2955 33.7075 13.2955 34.25C13.2955 34.7925 13.08 35.3128 12.6964 35.6964C12.3128 36.08 11.7925 36.2955 11.25 36.2955C10.7075 36.2955 10.1872 36.08 9.80365 35.6964C9.42005 35.3128 9.20455 34.7925 9.20455 34.25ZM20.4545 19.4205C20.4545 19.0136 20.6162 18.6234 20.9039 18.3357C21.1916 18.048 21.5818 17.8864 21.9886 17.8864H37.3295C37.7364 17.8864 38.1266 18.048 38.4143 18.3357C38.702 18.6234 38.8636 19.0136 38.8636 19.4205C38.8636 19.8273 38.702 20.2175 38.4143 20.5052C38.1266 20.7929 37.7364 20.9545 37.3295 20.9545H21.9886C21.5818 20.9545 21.1916 20.7929 20.9039 20.5052C20.6162 20.2175 20.4545 19.8273 20.4545 19.4205ZM21.9886 32.2045C21.5818 32.2045 21.1916 32.3662 20.9039 32.6539C20.6162 32.9416 20.4545 33.3318 20.4545 33.7386C20.4545 34.1455 20.6162 34.5357 20.9039 34.8234C21.1916 35.1111 21.5818 35.2727 21.9886 35.2727H37.3295C37.7364 35.2727 38.1266 35.1111 38.4143 34.8234C38.702 34.5357 38.8636 34.1455 38.8636 33.7386C38.8636 33.3318 38.702 32.9416 38.4143 32.6539C38.1266 32.3662 37.7364 32.2045 37.3295 32.2045H21.9886ZM6.13636 9.19318C6.13636 8.78631 6.29799 8.39611 6.58569 8.10842C6.87339 7.82072 7.26359 7.65909 7.67045 7.65909H37.3295C37.7364 7.65909 38.1266 7.82072 38.4143 8.10842C38.702 8.39611 38.8636 8.78631 38.8636 9.19318C38.8636 9.60005 38.702 9.99025 38.4143 10.2779C38.1266 10.5656 37.7364 10.7273 37.3295 10.7273H7.67045C7.26359 10.7273 6.87339 10.5656 6.58569 10.2779C6.29799 9.99025 6.13636 9.60005 6.13636 9.19318ZM7.67045 0.5C5.63612 0.5 3.68511 1.30813 2.24662 2.74662C0.808135 4.18511 0 6.13612 0 8.17045V37.8295C0 39.8639 0.808135 41.8149 2.24662 43.2534C3.68511 44.6919 5.63612 45.5 7.67045 45.5H37.3295C39.3639 45.5 41.3149 44.6919 42.7534 43.2534C44.1919 41.8149 45 39.8639 45 37.8295V8.17045C45 6.13612 44.1919 4.18511 42.7534 2.74662C41.3149 1.30813 39.3639 0.5 37.3295 0.5H7.67045ZM3.06818 8.17045C3.06818 6.94986 3.55306 5.77925 4.41616 4.91616C5.27925 4.05306 6.44986 3.56818 7.67045 3.56818H37.3295C38.5501 3.56818 39.7207 4.05306 40.5838 4.91616C41.4469 5.77925 41.9318 6.94986 41.9318 8.17045V37.8295C41.9318 39.0501 41.4469 40.2207 40.5838 41.0838C39.7207 41.9469 38.5501 42.4318 37.3295 42.4318H7.67045C6.44986 42.4318 5.27925 41.9469 4.41616 41.0838C3.55306 40.2207 3.06818 39.0501 3.06818 37.8295V8.17045Z" fill="white"/>
</svg>
