<svg width="17" height="16" viewBox="0 0 17 16" fill="none" xmlns="http://www.w3.org/2000/svg">
<g clip-path="url(#clip0_102_93)">
<path d="M14.8689 2.66667C14.8083 2.66043 14.7472 2.66043 14.6867 2.66667H2.24221C2.16245 2.6679 2.08322 2.67986 2.00665 2.70222L8.42887 9.09778L14.8689 2.66667Z" fill="url(#paint0_linear_102_93)"/>
<path d="M15.5267 3.28442L9.05557 9.72887C8.88902 9.89442 8.66373 9.98735 8.4289 9.98735C8.19407 9.98735 7.96878 9.89442 7.80223 9.72887L1.3889 3.33331C1.36918 3.40578 1.35873 3.48044 1.35779 3.55553V12.4444C1.35779 12.6802 1.45144 12.9063 1.61814 13.073C1.78484 13.2397 2.01093 13.3333 2.24668 13.3333H14.6911C14.9269 13.3333 15.153 13.2397 15.3197 13.073C15.4864 12.9063 15.58 12.6802 15.58 12.4444V3.55553C15.5765 3.46294 15.5585 3.37146 15.5267 3.28442ZM2.85557 12.4444H2.23779V11.8089L5.4689 8.60442L6.09557 9.23109L2.85557 12.4444ZM14.6822 12.4444H14.06L10.82 9.23109L11.4467 8.60442L14.6778 11.8089L14.6822 12.4444Z" fill="url(#paint1_linear_102_93)"/>
</g>
<defs>
<linearGradient id="paint0_linear_102_93" x1="14.8689" y1="5.87988" x2="2.00665" y2="5.87988" gradientUnits="userSpaceOnUse">
<stop stop-color="#319AE5"/>
<stop offset="1" stop-color="#39A54C"/>
</linearGradient>
<linearGradient id="paint1_linear_102_93" x1="15.58" y1="8.30887" x2="1.35779" y2="8.30887" gradientUnits="userSpaceOnUse">
<stop stop-color="#319AE5"/>
<stop offset="1" stop-color="#39A54C"/>
</linearGradient>
<clipPath id="clip0_102_93">
<rect width="16" height="16" fill="white" transform="translate(0.5)"/>
</clipPath>
</defs>
</svg>
