<svg width="22" height="17" viewBox="0 0 22 17" fill="none" xmlns="http://www.w3.org/2000/svg">
<path d="M20 0.802704H1.33333C0.979711 0.802704 0.640573 0.94318 0.390524 1.19323C0.140476 1.44328 0 1.78242 0 2.13604V15.4694C0 15.823 0.140476 16.1621 0.390524 16.4122C0.640573 16.6622 0.979711 16.8027 1.33333 16.8027H20C20.3536 16.8027 20.6928 16.6622 20.9428 16.4122C21.1929 16.1621 21.3333 15.823 21.3333 15.4694V2.13604C21.3333 1.78242 21.1929 1.44328 20.9428 1.19323C20.6928 0.94318 20.3536 0.802704 20 0.802704ZM17.18 11.3894C17.1178 11.4564 17.0426 11.5099 16.9588 11.5466C16.8751 11.5833 16.7847 11.6024 16.6933 11.6027C16.5249 11.6021 16.3629 11.5378 16.24 11.4227C16.1104 11.3032 16.0334 11.1371 16.0259 10.961C16.0184 10.7848 16.081 10.6128 16.2 10.4827L17.14 9.46937H4.19333L5.13333 10.4827C5.25234 10.6128 5.31494 10.7848 5.30744 10.961C5.29995 11.1371 5.22296 11.3032 5.09333 11.4227C4.97719 11.5318 4.82583 11.5956 4.66667 11.6027C4.57526 11.6024 4.48488 11.5833 4.40116 11.5466C4.31744 11.5099 4.24216 11.4564 4.18 11.3894L1.76 8.8027L4.15333 6.21604C4.27356 6.08608 4.4405 6.00921 4.61741 6.00233C4.79432 5.99546 4.96671 6.05914 5.09667 6.17937C5.22662 6.2996 5.30349 6.46653 5.31037 6.64344C5.31725 6.82035 5.25356 6.99275 5.13333 7.1227L4.19333 8.13604H17.14L16.2 7.1227C16.1405 7.05836 16.0942 6.98291 16.0638 6.90068C16.0334 6.81845 16.0196 6.73104 16.023 6.64344C16.0298 6.46653 16.1067 6.2996 16.2367 6.17937C16.3666 6.05914 16.539 5.99546 16.7159 6.00233C16.8928 6.00921 17.0598 6.08608 17.18 6.21604L19.5733 8.8027L17.18 11.3894Z" fill="url(#paint0_linear_18_385)"/>
<defs>
<linearGradient id="paint0_linear_18_385" x1="21.3333" y1="8.8027" x2="0" y2="8.8027" gradientUnits="userSpaceOnUse">
<stop stop-color="#319AE5"/>
<stop offset="1" stop-color="#39A54C"/>
</linearGradient>
</defs>
</svg>
