<svg width="24" height="25" viewBox="0 0 24 25" fill="none" xmlns="http://www.w3.org/2000/svg">
<g clip-path="url(#clip0_18_389)">
<path d="M12.6667 20.8027H2.66671C2.31309 20.8027 1.97395 20.6622 1.7239 20.4122C1.47385 20.1621 1.33337 19.823 1.33337 19.4694V6.13604C1.33337 5.78242 1.47385 5.44328 1.7239 5.19323C1.97395 4.94318 2.31309 4.8027 2.66671 4.8027H21.3334C21.687 4.8027 22.0261 4.94318 22.2762 5.19323C22.5262 5.44328 22.6667 5.78242 22.6667 6.13604V13.0494C21.7786 11.9182 20.4866 11.1752 19.0623 10.9763C17.6379 10.7775 16.1919 11.1383 15.0279 11.9831C13.8639 12.8278 13.0726 14.0907 12.82 15.5065C12.5674 16.9223 12.8733 18.3809 13.6734 19.576L13.0534 20.336L12.6667 20.8027ZM4.66671 8.8027V9.86937H16V8.8027H4.66671ZM4.66671 12.536H12V11.4694H4.66671V12.536ZM4.66671 17.2027H11.3334V16.136H4.66671V17.2027Z" fill="url(#paint0_linear_18_389)"/>
<path d="M22.5534 16.5294C22.5552 15.8264 22.3824 15.1341 22.0507 14.5143C21.7189 13.8946 21.2385 13.3669 20.6525 12.9786C20.0666 12.5903 19.3934 12.3536 18.6934 12.2896C17.9934 12.2256 17.2884 12.3363 16.6418 12.6119C15.9951 12.8875 15.427 13.3193 14.9883 13.8686C14.5497 14.4179 14.2543 15.0675 14.1285 15.7591C14.0028 16.4507 14.0507 17.1627 14.268 17.8312C14.4853 18.4997 14.8651 19.1038 15.3734 19.5894L14.08 21.1694L14.68 23.576L17.12 20.6027C17.8924 20.8311 18.7144 20.8311 19.4867 20.6027L21.9267 23.576L22.5267 21.1694L21.2334 19.5894C21.6493 19.1954 21.9808 18.721 22.2077 18.195C22.4346 17.6689 22.5522 17.1023 22.5534 16.5294ZM15.3934 16.5294C15.3854 15.9515 15.5495 15.3844 15.8648 14.9001C16.1801 14.4157 16.6322 14.0361 17.1638 13.8095C17.6954 13.5828 18.2824 13.5194 18.8502 13.6272C19.4179 13.7351 19.9407 14.0093 20.3522 14.4151C20.7636 14.8209 21.0451 15.3399 21.1608 15.9061C21.2765 16.4723 21.2212 17.0601 21.0019 17.5948C20.7826 18.1295 20.4093 18.5869 19.9294 18.9088C19.4494 19.2307 18.8846 19.4026 18.3067 19.4027C17.541 19.4045 16.8057 19.1034 16.2612 18.5651C15.7166 18.0268 15.4071 17.295 15.4 16.5294H15.3934Z" fill="url(#paint1_linear_18_389)"/>
</g>
<defs>
<linearGradient id="paint0_linear_18_389" x1="22.6667" y1="12.8027" x2="1.33337" y2="12.8027" gradientUnits="userSpaceOnUse">
<stop stop-color="#319AE5"/>
<stop offset="1" stop-color="#39A54C"/>
</linearGradient>
<linearGradient id="paint1_linear_18_389" x1="22.5534" y1="17.924" x2="14.0601" y2="17.924" gradientUnits="userSpaceOnUse">
<stop stop-color="#319AE5"/>
<stop offset="1" stop-color="#39A54C"/>
</linearGradient>
<clipPath id="clip0_18_389">
<rect width="24" height="24" fill="white" transform="translate(0 0.802704)"/>
</clipPath>
</defs>
</svg>
