<svg width="11" height="15" viewBox="0 0 11 15" fill="none" xmlns="http://www.w3.org/2000/svg">
<path d="M1.49984 14.6667C1.13317 14.6667 0.819393 14.5362 0.558504 14.2753C0.29717 14.014 0.166504 13.7 0.166504 13.3333V6.66667C0.166504 6.30001 0.29717 5.98601 0.558504 5.72467C0.819393 5.46378 1.13317 5.33334 1.49984 5.33334H2.1665V4.00001C2.1665 3.07778 2.49162 2.29156 3.14184 1.64134C3.79162 0.991561 4.57762 0.666672 5.49984 0.666672C6.42206 0.666672 7.20828 0.991561 7.8585 1.64134C8.50828 2.29156 8.83317 3.07778 8.83317 4.00001V5.33334H9.49984C9.8665 5.33334 10.1805 5.46378 10.4418 5.72467C10.7027 5.98601 10.8332 6.30001 10.8332 6.66667V13.3333C10.8332 13.7 10.7027 14.014 10.4418 14.2753C10.1805 14.5362 9.8665 14.6667 9.49984 14.6667H1.49984ZM5.49984 11.3333C5.8665 11.3333 6.1805 11.2029 6.44184 10.942C6.70273 10.6807 6.83317 10.3667 6.83317 10C6.83317 9.63334 6.70273 9.31934 6.44184 9.05801C6.1805 8.79712 5.8665 8.66667 5.49984 8.66667C5.13317 8.66667 4.81939 8.79712 4.5585 9.05801C4.29717 9.31934 4.1665 9.63334 4.1665 10C4.1665 10.3667 4.29717 10.6807 4.5585 10.942C4.81939 11.2029 5.13317 11.3333 5.49984 11.3333ZM3.49984 5.33334H7.49984V4.00001C7.49984 3.44445 7.30539 2.97223 6.9165 2.58334C6.52762 2.19445 6.05539 2.00001 5.49984 2.00001C4.94428 2.00001 4.47206 2.19445 4.08317 2.58334C3.69428 2.97223 3.49984 3.44445 3.49984 4.00001V5.33334Z" fill="#39A54C"/>
</svg>
