<svg width="17" height="30" viewBox="0 0 17 30" fill="none" xmlns="http://www.w3.org/2000/svg">
<path d="M15.6471 29.1551C15.4223 29.3804 15.1174 29.5072 14.7992 29.5076C14.481 29.5081 14.1756 29.3821 13.9503 29.1575L0.78866 16.0415C0.6653 15.9188 0.567405 15.773 0.500604 15.6123C0.433803 15.4517 0.399414 15.2794 0.399414 15.1055C0.399414 14.9315 0.433803 14.7592 0.500604 14.5986C0.567405 14.438 0.6653 14.2921 0.78866 14.1695L13.9503 1.05587C14.0611 0.941427 14.1937 0.850206 14.3402 0.787531C14.4866 0.724856 14.6442 0.691982 14.8035 0.690827C14.9628 0.689673 15.1208 0.72026 15.2682 0.780806C15.4155 0.841351 15.5494 0.930642 15.6619 1.04347C15.7744 1.15629 15.8633 1.2904 15.9235 1.43795C15.9836 1.58551 16.0137 1.74356 16.0121 1.90289C16.0105 2.06221 15.9772 2.21963 15.9141 2.36594C15.851 2.51225 15.7594 2.64454 15.6447 2.75507L3.25106 15.1055L15.6447 27.4583C15.8699 27.683 15.9968 27.988 15.9972 28.3062C15.9977 28.6244 15.8717 28.9297 15.6471 29.1551Z" fill="#333333"/>
</svg>
