<svg width="46" height="46" viewBox="0 0 46 46" fill="none" xmlns="http://www.w3.org/2000/svg">
<path d="M25.0829 18.2597L40.0036 3.31969H29.4286V0.105409H45.5V16.1768H42.2857V5.60184L27.3457 20.5258L25.0829 18.2629V18.2597ZM35.7061 26.4979C37.0324 26.4979 38.3053 27.0212 39.2482 27.954C39.6018 28.3075 39.9939 28.674 40.4279 29.0597L41.81 30.2908C42.2921 30.7247 42.7454 31.1779 43.1632 31.644C43.5811 32.1133 43.9764 32.5922 44.3461 33.0775C44.7125 33.5597 44.9889 34.0804 45.1721 34.6333C45.3586 35.1861 45.4679 35.739 45.5 36.2918C45.4988 37.617 44.9757 38.8884 44.0439 39.8308C43.1889 40.6858 42.4207 41.4379 41.7329 42.0936C41.0814 42.7187 40.3661 43.2735 39.5986 43.749C38.8593 44.199 38.0332 44.5365 37.1139 44.755C36.0497 44.9884 34.9634 45.1059 33.8739 45.1054C31.9675 45.0928 30.073 44.8049 28.2489 44.2504C26.2581 43.6553 24.3309 42.865 22.4954 41.8911C20.5336 40.8517 18.6618 39.6508 16.8993 38.3008C15.0704 36.9083 13.3412 35.3896 11.7243 33.7558C10.1011 32.1165 8.59357 30.3808 7.205 28.5583C5.86215 26.8074 4.67682 24.9412 3.66286 22.9815C2.7198 21.1569 1.94724 19.2492 1.355 17.2826C0.803343 15.492 0.515322 13.6307 0.5 11.7572C0.5 10.4843 0.609286 9.39791 0.827857 8.49148C1.03051 7.62412 1.36897 6.79424 1.83071 6.03255C2.28071 5.29327 2.83679 4.58612 3.48929 3.89827C4.14179 3.21041 4.90357 2.43255 5.77143 1.56148C6.71516 0.627882 7.9893 0.104596 9.31678 0.105409C10.1525 0.105409 10.9561 0.330409 11.7275 0.780409C12.4989 1.23684 13.2446 1.78648 13.9646 2.44219C14.6814 3.09469 15.3468 3.77934 15.9479 4.49934C16.5489 5.21934 17.1179 5.83969 17.6514 6.35719C18.5842 7.30013 19.1075 8.57296 19.1075 9.89934C19.119 10.501 19.0097 11.0989 18.7861 11.6576C18.5826 12.1528 18.3122 12.6178 17.9825 13.0397C17.6609 13.4436 17.3073 13.8209 16.925 14.1679C16.5393 14.5215 16.1889 14.8558 15.8707 15.174C15.5754 15.4662 15.2984 15.7764 15.0414 16.1029C14.8137 16.386 14.6981 16.7429 14.7168 17.1058C14.7168 17.3083 14.8679 17.6265 15.1668 18.0604C15.5549 18.6031 15.9745 19.1226 16.4236 19.6161C17.6719 21.0187 18.9702 22.376 20.3161 23.6854C21.0682 24.4247 21.7979 25.1318 22.5018 25.8197C23.2025 26.5075 23.8839 27.16 24.5364 27.7804C25.1889 28.3975 25.7418 28.9247 26.1918 29.3618C26.6418 29.7958 26.9954 30.1333 27.2461 30.3647C27.5324 30.6616 27.9161 30.8455 28.3269 30.8827C28.7377 30.9199 29.1482 30.8079 29.4832 30.5672C29.7821 30.3486 30.0939 30.0786 30.4121 29.7636C30.7304 29.4422 31.055 29.0918 31.3893 28.7061C31.7236 28.3204 32.1093 27.97 32.5464 27.6518C32.9804 27.3336 33.44 27.0572 33.9286 26.8225C34.4883 26.5758 35.0984 26.4646 35.7093 26.4979H35.7061ZM33.8739 41.8911C34.8961 41.8911 35.7479 41.7979 36.4357 41.6147C37.107 41.4371 37.7437 41.1481 38.3193 40.7597C38.8882 40.374 39.4218 39.924 39.9264 39.4065C40.4279 38.8858 41.0386 38.275 41.7586 37.5743C42.1121 37.2208 42.2857 36.8029 42.2857 36.3176C42.2857 36.099 42.1507 35.7904 41.8839 35.3854C41.5681 34.9202 41.2324 34.4687 40.8779 34.0322C40.4497 33.4998 39.988 32.9952 39.4957 32.5215C38.9814 32.0233 38.4768 31.5604 37.9914 31.1425C37.569 30.7731 37.1246 30.4296 36.6607 30.114C36.2589 29.8472 35.9407 29.7122 35.7061 29.7122C35.3464 29.7149 34.9962 29.8282 34.7032 30.0368C34.3648 30.2708 34.0523 30.5402 33.7711 30.8404C33.4721 31.1618 33.1443 31.5122 32.7939 31.8979C32.4404 32.2836 32.0546 32.634 31.6368 32.9522C31.2189 33.2704 30.7593 33.5468 30.2546 33.7815C29.7028 34.0245 29.1019 34.1356 28.4996 34.1061C27.8402 34.1103 27.1866 33.9815 26.578 33.7274C25.9695 33.4734 25.4183 33.0993 24.9575 32.6275L12.9811 20.6447C12.5186 20.1855 12.1515 19.6393 11.9011 19.0376C11.6475 18.4233 11.5112 17.767 11.4993 17.1026C11.4993 16.4501 11.6086 15.8715 11.8239 15.3701C12.0425 14.8686 12.3093 14.3993 12.6275 13.9622C12.9489 13.5283 13.2993 13.1522 13.685 12.834C14.0707 12.5158 14.4211 12.1815 14.7393 11.8279C15.0575 11.4776 15.3339 11.169 15.5686 10.899C15.8053 10.6209 15.9221 10.2602 15.8932 9.89612C15.8932 9.67755 15.7582 9.36898 15.4914 8.96398C15.1799 8.50474 14.8452 8.06167 14.4886 7.63648C14.0517 7.11266 13.5904 6.60961 13.1064 6.12898C12.6258 5.64495 12.1228 5.18373 11.5989 4.74684C11.163 4.38305 10.7104 4.03982 10.2425 3.71827C9.82464 3.43219 9.51607 3.30041 9.31357 3.31648C9.07564 3.31231 8.83937 3.35694 8.61935 3.4476C8.39933 3.53826 8.20021 3.67304 8.03429 3.84362C7.42728 4.45058 6.81655 5.05381 6.20214 5.65327C5.69409 6.13918 5.23938 6.67795 4.84571 7.26041C4.46472 7.83683 4.18431 8.47373 4.01643 9.14398C3.81627 9.9745 3.71485 10.8257 3.71429 11.6801C3.71429 13.2872 3.97143 14.9426 4.49214 16.6493C5.04512 18.4394 5.76842 20.1723 6.65214 21.8243C7.57464 23.5633 8.67714 25.2572 9.96607 26.8965C11.255 28.5358 12.6371 30.1011 14.1125 31.5893C17.0013 34.5125 20.2993 37.0006 23.9032 38.9758C25.5247 39.8603 27.233 40.5755 29.0011 41.1101C30.5812 41.5948 32.2214 41.8566 33.8739 41.8879V41.8911Z" fill="white"/>
</svg>
